<?xml version="1.0" encoding="us-ascii" standalone="no"?><svg xmlns="http://www.w3.org/2000/svg" xmlns:xlink="http://www.w3.org/1999/xlink" contentStyleType="text/css" height="1325px" preserveAspectRatio="none" style="width:1564px;height:1325px;background:#FFFFFF;" version="1.1" viewBox="0 0 1564 1325" width="1564px" zoomAndPan="magnify"><defs/><g><text fill="#163B55" font-family="Segoe UI" font-size="24" font-weight="bold" lengthAdjust="spacing" textLength="366" x="592" y="43.8984">IMS ERP &#8212; organizacija modula</text><!--cluster Django projekat: ims_erp--><g id="cluster_Django projekat: ims_erp"><rect fill="#F8FAFC" height="1064" rx="5" ry="5" style="stroke:#CBD5E1;stroke-width:1.0;" width="1551" x="7" y="75.9219"/><text fill="#000000" font-family="Segoe UI" font-size="14" font-weight="bold" lengthAdjust="spacing" textLength="169" x="698" y="101.0293">Django projekat: ims_erp</text></g><!--cluster people--><g id="cluster_people"><rect fill="#F8FAFC" height="542.5" rx="5" ry="5" style="stroke:#CBD5E1;stroke-width:1.0;" width="306" x="180" y="431.9219"/><text fill="#000000" font-family="Segoe UI" font-size="14" font-weight="bold" lengthAdjust="spacing" textLength="159" x="253.5" y="457.0293">Zaposleni i organizacija</text></g><!--cluster business--><g id="cluster_business"><rect fill="#F8FAFC" height="724.5" rx="5" ry="5" style="stroke:#CBD5E1;stroke-width:1.0;" width="311" x="526" y="249.9219"/><text fill="#000000" font-family="Segoe UI" font-size="14" font-weight="bold" lengthAdjust="spacing" textLength="149" x="607" y="275.0293">Finansijsko poslovanje</text></g><!--cluster legal--><g id="cluster_legal"><rect fill="#F8FAFC" height="533" rx="5" ry="5" style="stroke:#CBD5E1;stroke-width:1.0;" width="314" x="877" y="441.4219"/><text fill="#000000" font-family="Segoe UI" font-size="14" font-weight="bold" lengthAdjust="spacing" textLength="150" x="959" y="466.5293">Pravna dokumentacija</text></g><!--cluster other--><g id="cluster_other"><rect fill="#F8FAFC" height="351" rx="5" ry="5" style="stroke:#CBD5E1;stroke-width:1.0;" width="295" x="1231" y="632.9219"/><text fill="#000000" font-family="Segoe UI" font-size="14" font-weight="bold" lengthAdjust="spacing" textLength="146" x="1305.5" y="658.0293">Vozila i nasle&#273;eni deo</text></g><!--entity entry--><g id="elem_entry"><rect fill="#DCEBF5" height="73.2422" rx="5" ry="5" style="stroke:#5683A0;stroke-width:0.5;" width="220" x="677" y="128.9219"/><text fill="#000000" font-family="Segoe UI" font-size="14" lengthAdjust="spacing" textLength="97" x="695" y="162.0293">Ulaz u aplikaciju</text><text fill="#000000" font-family="Segoe UI" font-size="14" lengthAdjust="spacing" textLength="184" x="695" y="180.6504">urls.py &#183; settings/ &#183; WSGI/ASGI</text></g><!--entity core--><g id="elem_core"><rect fill="#D9EEE7" height="91.8633" rx="5" ry="5" style="stroke:#5683A0;stroke-width:0.5;" width="336" x="662" y="1031.9219"/><text fill="#000000" font-family="Segoe UI" font-size="14" lengthAdjust="spacing" textLength="149" x="680" y="1065.0293">Zajedni&#269;ka osnova &#183; core</text><text fill="#000000" font-family="Segoe UI" font-size="14" lengthAdjust="spacing" textLength="283" x="680" y="1083.6504">Korisnici &#183; uloge &#183; dozvole ruta &#183; evidencija rada</text><text fill="#000000" font-family="Segoe UI" font-size="14" lengthAdjust="spacing" textLength="300" x="680" y="1102.2715">Zajedni&#269;ki &#353;abloni i administracija kroz core / fleet</text></g><!--entity hr--><g id="elem_hr"><rect fill="#EDF5FA" height="91.8633" rx="5" ry="5" style="stroke:#5683A0;stroke-width:0.5;" width="229" x="223.5" y="492.9219"/><text fill="#000000" font-family="Segoe UI" font-size="14" lengthAdjust="spacing" textLength="70" x="241.5" y="526.0293">Kadrovi &#183; hr</text><text fill="#000000" font-family="Segoe UI" font-size="14" lengthAdjust="spacing" textLength="193" x="241.5" y="544.6504">Zaposleni, radne liste, odsustva,</text><text fill="#000000" font-family="Segoe UI" font-size="14" lengthAdjust="spacing" textLength="171" x="241.5" y="563.2715">ocenjivanje, zahtevi i re&#353;enja</text></g><!--entity org--><g id="elem_org"><rect fill="#EDF5FA" height="91.8633" rx="5" ry="5" style="stroke:#5683A0;stroke-width:0.5;" width="218" x="228" y="693.9219"/><text fill="#000000" font-family="Segoe UI" font-size="14" lengthAdjust="spacing" textLength="156" x="246" y="727.0293">Organizacija &#183; organizacija</text><text fill="#000000" font-family="Segoe UI" font-size="14" lengthAdjust="spacing" textLength="182" x="246" y="745.6504">Registar centara, OJ i poslova;</text><text fill="#000000" font-family="Segoe UI" font-size="14" lengthAdjust="spacing" textLength="128" x="246" y="764.2715">verzije i dodele uloga</text></g><!--entity mobile--><g id="elem_mobile"><rect fill="#EDF5FA" height="73.2422" rx="5" ry="5" style="stroke:#5683A0;stroke-width:0.5;" width="249" x="212.5" y="877.4219"/><text fill="#000000" font-family="Segoe UI" font-size="14" lengthAdjust="spacing" textLength="165" x="230.5" y="910.5293">Mobilna telefonija &#183; mobilni</text><text fill="#000000" font-family="Segoe UI" font-size="14" lengthAdjust="spacing" textLength="213" x="230.5" y="929.1504">Brojevi, paketi, potro&#353;nja, obustave</text></g><!--entity finance--><g id="elem_finance"><rect fill="#EDF5FA" height="73.2422" rx="5" ry="5" style="stroke:#5683A0;stroke-width:0.5;" width="244" x="569" y="310.9219"/><text fill="#000000" font-family="Segoe UI" font-size="14" lengthAdjust="spacing" textLength="112" x="587" y="344.0293">Finansije &#183; finansije</text><text fill="#000000" font-family="Segoe UI" font-size="14" lengthAdjust="spacing" textLength="208" x="587" y="362.6504">Analitika, tro&#353;kovi i nov&#269;ani tokovi</text></g><!--entity procurement--><g id="elem_procurement"><rect fill="#EDF5FA" height="73.2422" rx="5" ry="5" style="stroke:#5683A0;stroke-width:0.5;" width="223" x="585.5" y="502.4219"/><text fill="#000000" font-family="Segoe UI" font-size="14" lengthAdjust="spacing" textLength="115" x="603.5" y="535.5293">Nabavka &#183; nabavka</text><text fill="#000000" font-family="Segoe UI" font-size="14" lengthAdjust="spacing" textLength="187" x="603.5" y="554.1504">Zahtevi, narud&#382;benice i fakture</text></g><!--entity receivables--><g id="elem_receivables"><rect fill="#EDF5FA" height="73.2422" rx="5" ry="5" style="stroke:#5683A0;stroke-width:0.5;" width="209" x="600.5" y="703.4219"/><text fill="#000000" font-family="Segoe UI" font-size="14" lengthAdjust="spacing" textLength="159" x="618.5" y="736.5293">Potra&#382;ivanja &#183; potrazivanja</text><text fill="#000000" font-family="Segoe UI" font-size="14" lengthAdjust="spacing" textLength="173" x="618.5" y="755.1504">Du&#382;nici, dokumenti i naplata</text></g><!--entity payments--><g id="elem_payments"><rect fill="#EDF5FA" height="73.2422" rx="5" ry="5" style="stroke:#5683A0;stroke-width:0.5;" width="189" x="622.5" y="877.4219"/><text fill="#000000" font-family="Segoe UI" font-size="14" lengthAdjust="spacing" textLength="90" x="640.5" y="910.5293">Isplate &#183; isplate</text><text fill="#000000" font-family="Segoe UI" font-size="14" lengthAdjust="spacing" textLength="153" x="640.5" y="929.1504">Virmani i bankarski izvozi</text></g><!--entity law--><g id="elem_law"><rect fill="#EDF5FA" height="73.2422" rx="5" ry="5" style="stroke:#5683A0;stroke-width:0.5;" width="205" x="935.5" y="502.4219"/><text fill="#000000" font-family="Segoe UI" font-size="14" lengthAdjust="spacing" textLength="137" x="953.5" y="535.5293">Pravna slu&#382;ba &#183; pravna</text><text fill="#000000" font-family="Segoe UI" font-size="14" lengthAdjust="spacing" textLength="169" x="953.5" y="554.1504">Pravni i disciplinski postupci</text></g><!--entity contracts--><g id="elem_contracts"><rect fill="#EDF5FA" height="73.2422" rx="5" ry="5" style="stroke:#5683A0;stroke-width:0.5;" width="257" x="909.5" y="703.4219"/><text fill="#000000" font-family="Segoe UI" font-size="14" lengthAdjust="spacing" textLength="107" x="927.5" y="736.5293">Ugovori &#183; ugovori</text><text fill="#000000" font-family="Segoe UI" font-size="14" lengthAdjust="spacing" textLength="221" x="927.5" y="755.1504">Partneri, ponude, ugovori i garancije</text></g><!--entity bills--><g id="elem_bills"><rect fill="#EDF5FA" height="73.2422" rx="5" ry="5" style="stroke:#5683A0;stroke-width:0.5;" width="175" x="929.5" y="877.4219"/><text fill="#000000" font-family="Segoe UI" font-size="14" lengthAdjust="spacing" textLength="98" x="947.5" y="910.5293">Menice &#183; menice</text><text fill="#000000" font-family="Segoe UI" font-size="14" lengthAdjust="spacing" textLength="139" x="947.5" y="929.1504">Ulazne i izlazne menice</text></g><!--entity fleet--><g id="elem_fleet"><rect fill="#EDF5FA" height="91.8633" rx="5" ry="5" style="stroke:#5683A0;stroke-width:0.5;" width="228" x="1255" y="693.9219"/><text fill="#000000" font-family="Segoe UI" font-size="14" lengthAdjust="spacing" textLength="67" x="1273" y="727.0293">Flota &#183; fleet</text><text fill="#000000" font-family="Segoe UI" font-size="14" lengthAdjust="spacing" textLength="180" x="1273" y="745.6504">Vozila, nalozi, gorivo, tro&#353;kovi</text><text fill="#000000" font-family="Segoe UI" font-size="14" lengthAdjust="spacing" textLength="192" x="1273" y="764.2715">+ deo zajedni&#269;kih ruta i modela</text></g><!--entity old--><g id="elem_old"><rect fill="#FFF5E8" height="91.8633" rx="5" ry="5" style="stroke:#5683A0;stroke-width:0.5;" width="204" x="1261" y="867.9219"/><text fill="#000000" font-family="Segoe UI" font-size="14" lengthAdjust="spacing" textLength="168" x="1279" y="901.0293">Nasle&#273;ena naplata &#183; naplata</text><text fill="#000000" font-family="Segoe UI" font-size="14" lengthAdjust="spacing" textLength="154" x="1279" y="919.6504">Postoje&#263;i deo; novi razvoj</text><text fill="#000000" font-family="Segoe UI" font-size="14" lengthAdjust="spacing" textLength="108" x="1279" y="938.2715">ide u potrazivanja</text></g><!--link hr to org--><!--link org to mobile--><!--link finance to procurement--><!--link procurement to receivables--><!--link receivables to payments--><!--link law to contracts--><!--link contracts to bills--><!--link fleet to old--><!--link entry to people--><g id="link_entry_people"><path d="M676.88,176.1419 C536.43,195.2119 299.38,251.3519 196,415.9219 C194.2219,418.7525 192.6323,421.6966 191.2147,424.7295 C190.5059,426.246 189.8402,427.7846 189.2153,429.3424 C188.9029,430.1212 190.6866,425.2792 190.3944,426.0672 " fill="none" id="entry-to-people" style="stroke:#527086;stroke-width:1.2;"/><polygon fill="#527086" points="188.3086,431.693,195.1879,424.6449,190.0468,427.0048,187.6869,421.8637,188.3086,431.693" style="stroke:#527086;stroke-width:1.2;"/></g><!--link entry to business--><g id="link_entry_business"><path d="M676.9,173.1519 C632.39,181.5619 584.25,198.9019 553,233.9219 C548.845,238.5769 545.4248,243.7897 542.6216,249.3526 C542.534,249.5264 545.1091,244.3235 545.0227,244.498 " fill="none" id="entry-to-business" style="stroke:#527086;stroke-width:1.2;"/><polygon fill="#527086" points="542.3606,249.8751,549.9385,243.5842,544.579,245.3942,542.769,240.0347,542.3606,249.8751" style="stroke:#527086;stroke-width:1.2;"/></g><!--link entry to legal--><g id="link_entry_legal"><path d="M812.73,202.2519 C818.85,212.1219 824.81,223.1119 829,233.9219 C853.415,296.9819 867.3625,371.6119 875.2325,431.1456 C875.7244,434.8665 876.1925,438.5284 876.638,442.1248 C876.7493,443.0239 876.1335,437.963 876.2421,438.8538 " fill="none" id="entry-to-legal" style="stroke:#527086;stroke-width:1.2;"/><polygon fill="#527086" points="876.9678,444.8097,879.8498,435.392,876.363,439.8464,871.9086,436.3596,876.9678,444.8097" style="stroke:#527086;stroke-width:1.2;"/></g><!--link entry to other--><g id="link_entry_other"><path d="M895.21,201.9819 C1055.68,260.8019 1353.44,394.4519 1499,616.9219 C1500.8488,619.7469 1502.542,622.6861 1504.0918,625.7147 C1504.8666,627.229 1505.6057,628.7656 1506.3104,630.3216 C1506.6628,631.0995 1504.6549,626.3624 1504.9902,627.1496 " fill="none" id="entry-to-other" style="stroke:#527086;stroke-width:1.2;"/><polygon fill="#527086" points="1507.3419,632.6695,1507.4944,622.8219,1505.3822,628.0696,1500.1345,625.9574,1507.3419,632.6695" style="stroke:#527086;stroke-width:1.2;"/></g><!--link people to core--><g id="link_people_core"><path d="M179.6903,552.8344 C179.5794,553.0109 179.4675,553.1891 179.3546,553.369 C178.9032,554.0884 178.4365,554.8344 177.9551,555.6065 C176.0295,558.6946 173.869,562.1994 171.5109,566.085 C162.0787,581.6275 149.4862,603.2644 136.13,628.7144 C109.4175,679.6144 79.65,745.7669 66,808.9219 C44.3,909.2919 105.73,950.9719 196,999.9219 C273.92,1042.1719 495.7888,1061.3568 655.9288,1070.0468 " fill="none" id="people-to-core" style="stroke:#527086;stroke-width:1.2;stroke-dasharray:7.0,7.0;"/><polygon fill="#527086" points="661.92,1070.3719,653.15,1065.8901,656.9273,1070.1009,652.7165,1073.8783,661.92,1070.3719" style="stroke:#527086;stroke-width:1.2;"/><text fill="#000000" font-family="Segoe UI" font-size="14" lengthAdjust="spacing" textLength="112" x="75" y="833.0293">zajedni&#269;ke funkcije</text></g><!--link business to core--><g id="link_business_core"><path d="M538.2597,974.7088 C538.3126,974.9043 538.3669,975.0998 538.4225,975.2954 C538.8671,976.86 539.3974,978.4277 540.0252,980.0059 C542.5362,986.3188 546.6075,992.7994 553,999.9219 C569.29,1018.0819 607.7129,1032.1217 656.1829,1044.3717 " fill="none" id="business-to-core" style="stroke:#527086;stroke-width:1.2;stroke-dasharray:7.0,7.0;"/><polygon fill="#527086" points="662,1045.8419,654.2545,1039.7585,657.1524,1044.6167,652.2942,1047.5147,662,1045.8419" style="stroke:#527086;stroke-width:1.2;"/></g><!--link legal to core--><g id="link_legal_core"><path d="M876.8326,619.6864 C876.7039,620.9429 876.5741,622.2106 876.4431,623.4891 C876.1812,626.0462 875.9149,628.6468 875.6443,631.2887 C874.562,641.8564 873.412,653.0851 872.2088,664.8334 C869.8023,688.3301 867.1828,713.9053 864.4663,740.4281 C853.6,846.5194 841.7915,961.8031 835.2315,1025.8331 " fill="none" id="legal-to-core" style="stroke:#527086;stroke-width:1.2;stroke-dasharray:7.0,7.0;"/><polygon fill="#527086" points="834.62,1031.8019,839.5164,1023.2564,835.1296,1026.8279,831.5581,1022.4411,834.62,1031.8019" style="stroke:#527086;stroke-width:1.2;"/></g><!--link other to core--><g id="link_other_core"><path d="M1526.0714,768.9041 C1526.3448,769.9853 1526.6207,771.0925 1526.8986,772.2247 C1531.3447,790.3394 1536.2819,814.8456 1538.7038,841.7469 C1543.5475,895.5494 1538.33,958.9319 1499,999.9219 C1464.85,1035.5119 1191.0197,1057.2907 1004.2497,1068.2407 " fill="none" id="other-to-core" style="stroke:#527086;stroke-width:1.2;stroke-dasharray:7.0,7.0;"/><polygon fill="#527086" points="998.26,1068.5919,1007.4787,1072.0583,1003.2514,1068.2992,1007.0105,1064.072,998.26,1068.5919" style="stroke:#527086;stroke-width:1.2;"/></g><!--link mobile to core--><!--link payments to core--><!--link bills to core--><!--link old to core--><rect fill="none" height="81.8633" id="_legend" rx="5" ry="5" style="stroke:#000000;stroke-width:1.0;" width="487" x="12" y="1156.9219"/><text fill="#000000" font-family="Segoe UI" font-size="14" lengthAdjust="spacing" textLength="461" x="25" y="1185.0293">Unutar modula: urls &#8594; views / forme &#8594; services / support &#8594; modeli / izvori.</text><text fill="#000000" font-family="Segoe UI" font-size="14" lengthAdjust="spacing" textLength="431" x="25" y="1203.6504">Prikazana je logi&#269;ka organizacija, ne potpuni graf Python importovanja.</text><text fill="#000000" font-family="Segoe UI" font-size="14" lengthAdjust="spacing" textLength="367" x="25" y="1222.2715">Deo modela iz core i hr ima app_label="fleet" i tabele fleet_*.</text><text fill="#64748B" font-family="Segoe UI" font-size="12" lengthAdjust="spacing" textLength="336" x="607" y="1273.7344">UML paketi i komponente | grupe predstavljaju poslovne oblasti</text><text fill="#64748B" font-family="Segoe UI" font-size="11" lengthAdjust="spacing" textLength="288" x="631" y="1306.6162">IMS ERP | Arhitektura prema repozitorijumu | 28.09.2026.</text><!--SRC=[TLRDRXit4BxhAQRshLNaKz3MGGCajLougHiZWLCWtS8OxL8hQhdaWkIkORK1UcfFERJe2_WfUlEXi5uaJzAFfAIi9ESYaKFocxzlPlOpgNFL5eAkd9Tg9DjQ3RpqIj3P-MiQlxgW3x__GyQMhEM2SpbdgatHAXxat7XfD5sU_q0DLy9BabIPkZ5QQ2_eDofjsmXgh2YSvqxDUTvIOvmodHPa9egXSk1DGzxGn7XlQYga5Nc07GmQpYik1HsSp5cN1ZXcBYhsnoHhToLiSq2_3eZojKOwk5Iye9QuKR8AfhQPRgroe-Q6_lkNdF1Uwj8TXSrFhxyxEtg6dmDYHtXjR-ZmvDlnyzF7mDoeVil1Ng63Q_qOn5UDC0tY58pOCkC55zPqCgYPsKnlC8PakO3dIZelXcGArphVyJ3J9XTwBZlMSyWNFFEY2ngjMDxY86cRsLqzB_j9WRA-WPb-9KheOKl0nXyFwUNtm4pnvoUPxeHToBc0h325W2EjCcNI1QHTPUTc8fLcyhWvDNgbievIcUdd8JaTN4nCmB_nrYnlOJqydRI1029YnoSYmiyiFVfv9ej2w5yASwqVFTrenl_UsURbktwAJgLcxUJSLMRj7C8OLK6jrCAv_HIj7udWn7IzoVGppKfwi6T8qVpAn4Heqzs_Hsn1r229uF5LBdQHV-G9TrKCZaxBm82OqI4ajYsMTnEG8G-1dtBbMvkC1Rrph6kWx69U89Qyl8i4YSWXkBn8-qoVjCix00A_C5KR0ABDA0FsAP-eAO7R4oNSBlQP2zTY76HQPlgDj3L7pazOLsnTXVMYCulaUSCtGKc2MeLXBrcxxlJsUtTtpUljzt4_Aj-YmONb3lHSH-1ZbIfHijfdmEg-KmZU90KrIZ8TJuBpXNIvH2_HmNzGoxTDdYAW-7eNxx8qdR6nwDkq119RhuMDrQ3HOuVh8u2NA4aD8rFoSuCEnBdVIyzveaeejRZAT6XoEf17Bj8g7IJ2IwKI12pS2zskajLkxzuQPIk-Rv1znP5NQ6RtVuMUM0YJseMV2Vj0aIdZOsIdIWWFMaM8K0KAgo6LY4HdUfMMwIy29ZhWN1HQth-lv8niwuFQElIebD48jrztAxDupVnKWd69L21zw53tVqQhduIAHdzba7gUQOdnrsuLLN9B5NHuUdhwUFnLedhGkz-nLB6ALS-QjniFc8o3icXDRYmI-09kkr2laIlekJ6zXO4jQCBHNUpHBw0ajdPCZTX4Da6XvIsAmqIISb5BZKPlqnYeh5b4FNIKx5tH2uB3aw_7u_6NC3IDkqUXck88snAjc-QMC1RHbYJcF10a3S7Hw6dISjpBdg1fgwj0SbpSDEFrLSXIRVO4YKazGUhv3r0vdgwRmQVE8vC_THZI- -3Hkm7i4hfOVvDWu0MwNUesZDFqzNDCuSk2FlpnDtLINBiGRcDh4ILEs0ub6OIkRHfZVHH72ai8Go-rSWJC2ujPis2G5gC8L5WnfZV8KIuYKBDfaUxIyfGkRlmCdrso3i1nsd60Ea7Xf281Vig531DMremlekPAyKIeRmvMfC0e2tkHI7Br-MW0XvFR_mC0]--></g></svg>