<svg xmlns="http://www.w3.org/2000/svg" xmlns:xlink="http://www.w3.org/1999/xlink" width="543pt" height="1260pt" viewBox="0.00 0.00 543.00 1260.00" role="img" aria-label="Menice · modeli i polja">
<style>.node:hover polygon,.node:hover path{stroke-width:2.5}.node a:focus{outline:2px solid #287b75}text{font-family:"Segoe UI",Arial,sans-serif}</style><g id="graph0" class="graph" transform="scale(1 1) rotate(0) translate(21.6 1238.38)">
<title>G</title>

<g id="node-finansije.BankBillPlacement" class="node" data-key="finansije.BankBillPlacement" data-route="model/finansije.BankBillPlacement">
<title>n0</title>
<g id="a_node-finansije.BankBillPlacement"><a xlink:href="../../index.html#model/finansije.BankBillPlacement" xlink:title="finansije.BankBillPlacement" target="_top">
<path fill="#f3f8fb" stroke="#277b75" d="M143.23,-621.78C143.23,-621.78 16.12,-621.78 16.12,-621.78 10.12,-621.78 4.13,-615.78 4.13,-609.78 4.13,-609.78 4.13,-543 4.13,-543 4.13,-537 10.13,-531 16.13,-531 16.13,-531 143.23,-531 143.23,-531 149.23,-531 155.23,-537 155.23,-543 155.23,-543 155.23,-609.78 155.23,-609.78 155.23,-615.78 149.23,-621.78 143.23,-621.78" />
<text xml:space="preserve" text-anchor="start" x="18.93" y="-598.69" font-family="Segoe UI" font-size="11.00" fill="#277b75">finansije</text>
<text xml:space="preserve" text-anchor="start" x="18.93" y="-573.84" font-family="Segoe UI" font-weight="bold" font-size="14.00">BankBillPlacement</text>
<text xml:space="preserve" text-anchor="start" x="18.93" y="-548.19" font-family="Segoe UI" font-size="11.00" fill="#5c7282">7 polja · povezani model</text>
</a>
</g>
</g>

<g id="node-menice.Menica" class="node" data-key="menice.Menica" data-route="model/menice.Menica">
<title>n1</title>
<g id="a_node-menice.Menica"><a xlink:href="../../index.html#model/menice.Menica" xlink:title="menice.Menica" target="_top">
<path fill="#f3f8fb" stroke="#8a6933" d="M487.7,-1216.78C487.7,-1216.78 299.85,-1216.78 299.85,-1216.78 293.85,-1216.78 287.85,-1210.78 287.85,-1204.78 287.85,-1204.78 287.85,-448 287.85,-448 287.85,-442 293.85,-436 299.85,-436 299.85,-436 487.7,-436 487.7,-436 493.7,-436 499.7,-442 499.7,-448 499.7,-448 499.7,-1204.78 499.7,-1204.78 499.7,-1210.78 493.7,-1216.78 487.7,-1216.78" />
<text xml:space="preserve" text-anchor="start" x="302.65" y="-1193.69" font-family="Segoe UI" font-size="11.00" fill="#8a6933">menice</text>
<text xml:space="preserve" text-anchor="start" x="302.65" y="-1168.84" font-family="Segoe UI" font-weight="bold" font-size="14.00">Menica</text>
<text xml:space="preserve" text-anchor="start" x="302.65" y="-1143.19" font-family="Segoe UI" font-size="11.00">id : PK (Django)</text>
<text xml:space="preserve" text-anchor="start" x="302.65" y="-1120.19" font-family="Segoe UI" font-size="11.00">tip : Char</text>
<text xml:space="preserve" text-anchor="start" x="302.65" y="-1097.19" font-family="Segoe UI" font-size="11.00">sifra_partnera : Integer ?</text>
<text xml:space="preserve" text-anchor="start" x="302.65" y="-1074.19" font-family="Segoe UI" font-size="11.00">naziv_duznika : Char ?</text>
<text xml:space="preserve" text-anchor="start" x="302.65" y="-1051.19" font-family="Segoe UI" font-size="11.00">maticni_broj_duznika : Char ?</text>
<text xml:space="preserve" text-anchor="start" x="302.65" y="-1028.19" font-family="Segoe UI" font-size="11.00">poreski_broj_duznika : Char ?</text>
<text xml:space="preserve" text-anchor="start" x="302.65" y="-1005.19" font-family="Segoe UI" font-size="11.00">strana_rezultata : PositiveInteger ?</text>
<text xml:space="preserve" text-anchor="start" x="302.65" y="-982.19" font-family="Segoe UI" font-size="11.00">serijski_broj_menice : Char ?</text>
<text xml:space="preserve" text-anchor="start" x="302.65" y="-959.19" font-family="Segoe UI" font-size="11.00">datum_izdavanja : Date ?</text>
<text xml:space="preserve" text-anchor="start" x="302.65" y="-936.19" font-family="Segoe UI" font-size="11.00">iznos_menice : Decimal ?</text>
<text xml:space="preserve" text-anchor="start" x="302.65" y="-913.19" font-family="Segoe UI" font-size="11.00">valuta_menice : Char ?</text>
<text xml:space="preserve" text-anchor="start" x="302.65" y="-890.19" font-family="Segoe UI" font-size="11.00">datum_dospeca : Date ?</text>
<text xml:space="preserve" text-anchor="start" x="302.65" y="-867.19" font-family="Segoe UI" font-size="11.00">izdavalac_menice : Char ?</text>
<text xml:space="preserve" text-anchor="start" x="302.65" y="-844.19" font-family="Segoe UI" font-size="11.00">vrsta_menice : Char ?</text>
<text xml:space="preserve" text-anchor="start" x="302.65" y="-821.19" font-family="Segoe UI" font-size="11.00">redni_broj : PositiveInteger ?</text>
<text xml:space="preserve" text-anchor="start" x="302.65" y="-798.19" font-family="Segoe UI" font-size="11.00">osnov_izdavanja : Char ?</text>
<text xml:space="preserve" text-anchor="start" x="302.65" y="-775.19" font-family="Segoe UI" font-size="11.00">iznos_iz_osnova : Decimal ?</text>
<text xml:space="preserve" text-anchor="start" x="302.65" y="-752.19" font-family="Segoe UI" font-size="11.00">valuta_osnova : Char ?</text>
<text xml:space="preserve" text-anchor="start" x="302.65" y="-729.19" font-family="Segoe UI" font-size="11.00">datum_registracije : Date ?</text>
<text xml:space="preserve" text-anchor="start" x="302.65" y="-706.19" font-family="Segoe UI" font-size="11.00">naziv_banke : Char ?</text>
<text xml:space="preserve" text-anchor="start" x="302.65" y="-683.19" font-family="Segoe UI" font-size="11.00">status : Char ?</text>
<text xml:space="preserve" text-anchor="start" x="302.65" y="-660.19" font-family="Segoe UI" font-size="11.00">avalisti_detalji : Text ?</text>
<text xml:space="preserve" text-anchor="start" x="302.65" y="-637.19" font-family="Segoe UI" font-size="11.00">avalisti_broj_zapisa : PositiveInteger ?</text>
<text xml:space="preserve" text-anchor="start" x="302.65" y="-614.19" font-family="Segoe UI" font-size="11.00">broj_ugovora : Char ?</text>
<text xml:space="preserve" text-anchor="start" x="302.65" y="-591.19" font-family="Segoe UI" font-size="11.00">datum_ugovora : Date ?</text>
<text xml:space="preserve" text-anchor="start" x="302.65" y="-568.19" font-family="Segoe UI" font-size="11.00">oj : Char ?</text>
<text xml:space="preserve" text-anchor="start" x="302.65" y="-545.19" font-family="Segoe UI" font-size="11.00">fizicka_lokacija : Char ?</text>
<text xml:space="preserve" text-anchor="start" x="302.65" y="-522.19" font-family="Segoe UI" font-size="11.00">napomena : Text ?</text>
<text xml:space="preserve" text-anchor="start" x="302.65" y="-499.19" font-family="Segoe UI" font-size="11.00">interni_status : PositiveSmallInteger</text>
<text xml:space="preserve" text-anchor="start" x="302.65" y="-476.19" font-family="Segoe UI" font-size="11.00">created_at : DateTime</text>
<text xml:space="preserve" text-anchor="start" x="302.65" y="-453.19" font-family="Segoe UI" font-size="11.00">updated_at : DateTime</text>
</a>
</g>
</g>

<g id="edge-0" class="edge" data-from="finansije.BankBillPlacement" data-to="menice.Menica">
<title>n0-&gt;n1</title>
<g id="a_edge-0"><a xlink:title="finansije.BankBillPlacement.bill → menice.Menica | ForeignKey | 0..* : 0..1">
<path fill="none" stroke="#a27631" d="M137.92,-622.24C177.92,-654.28 232.63,-698.11 281.11,-736.94" />
<polygon fill="#a27631" stroke="#a27631" points="279.42,-738.73 286.42,-741.19 282.49,-734.91 279.42,-738.73" />
</a>
</g>
<text xml:space="preserve" text-anchor="middle" x="223.6" y="-720.91" font-family="Segoe UI" font-size="11.00">bill</text>
<text xml:space="preserve" text-anchor="middle" x="273.02" y="-735.64" font-family="Segoe UI" font-size="11.00">0..1</text>
<text xml:space="preserve" text-anchor="middle" x="152.49" y="-622.85" font-family="Segoe UI" font-size="11.00">0..*</text>
</g>

<g id="node-menice.UlaznaMenica" class="node" data-key="menice.UlaznaMenica" data-route="model/menice.UlaznaMenica">
<title>n2</title>
<g id="a_node-menice.UlaznaMenica"><a xlink:href="../../index.html#model/menice.UlaznaMenica" xlink:title="menice.UlaznaMenica" target="_top">
<path fill="#f3f8fb" stroke="#8a6933" d="M483.58,-412.78C483.58,-412.78 303.98,-412.78 303.98,-412.78 297.98,-412.78 291.98,-406.78 291.98,-400.78 291.98,-400.78 291.98,-12 291.98,-12 291.98,-6 297.98,0 303.98,0 303.98,0 483.58,0 483.58,0 489.58,0 495.58,-6 495.58,-12 495.58,-12 495.58,-400.78 495.58,-400.78 495.58,-406.78 489.58,-412.78 483.58,-412.78" />
<text xml:space="preserve" text-anchor="start" x="306.78" y="-389.69" font-family="Segoe UI" font-size="11.00" fill="#8a6933">menice</text>
<text xml:space="preserve" text-anchor="start" x="306.78" y="-364.84" font-family="Segoe UI" font-weight="bold" font-size="14.00">UlaznaMenica</text>
<text xml:space="preserve" text-anchor="start" x="306.78" y="-339.19" font-family="Segoe UI" font-size="11.00">id : PK (Django)</text>
<text xml:space="preserve" text-anchor="start" x="306.78" y="-316.19" font-family="Segoe UI" font-size="11.00">serijski_broj_menice : Char</text>
<text xml:space="preserve" text-anchor="start" x="306.78" y="-293.19" font-family="Segoe UI" font-size="11.00">osnov_izdavanja : Char ?</text>
<text xml:space="preserve" text-anchor="start" x="306.78" y="-270.19" font-family="Segoe UI" font-size="11.00">datum_prijema_menice : Date ?</text>
<text xml:space="preserve" text-anchor="start" x="306.78" y="-247.19" font-family="Segoe UI" font-size="11.00">jedinica_vrednosti : Char</text>
<text xml:space="preserve" text-anchor="start" x="306.78" y="-224.19" font-family="Segoe UI" font-size="11.00">procenat_iznos : Decimal ?</text>
<text xml:space="preserve" text-anchor="start" x="306.78" y="-201.19" font-family="Segoe UI" font-size="11.00">sifra_poslovnog_partnera : Integer ?</text>
<text xml:space="preserve" text-anchor="start" x="306.78" y="-178.19" font-family="Segoe UI" font-size="11.00">naziv_pravnog_lica : Char ?</text>
<text xml:space="preserve" text-anchor="start" x="306.78" y="-155.19" font-family="Segoe UI" font-size="11.00">broj_naseg_ugovora : Char ?</text>
<text xml:space="preserve" text-anchor="start" x="306.78" y="-132.19" font-family="Segoe UI" font-size="11.00">datum_ugovora : Date ?</text>
<text xml:space="preserve" text-anchor="start" x="306.78" y="-109.19" font-family="Segoe UI" font-size="11.00">ugovor_vazi_do : Date ?</text>
<text xml:space="preserve" text-anchor="start" x="306.78" y="-86.19" font-family="Segoe UI" font-size="11.00">lokacija_menice : Char ?</text>
<text xml:space="preserve" text-anchor="start" x="306.78" y="-63.19" font-family="Segoe UI" font-size="11.00">sifra_centra : Char ?</text>
<text xml:space="preserve" text-anchor="start" x="306.78" y="-40.19" font-family="Segoe UI" font-size="11.00">created_at : DateTime</text>
<text xml:space="preserve" text-anchor="start" x="306.78" y="-17.19" font-family="Segoe UI" font-size="11.00">updated_at : DateTime</text>
</a>
</g>
</g>

<g id="edge-1" class="edge" data-from="finansije.BankBillPlacement" data-to="menice.UlaznaMenica">
<title>n0-&gt;n2</title>
<g id="a_edge-1"><a xlink:title="finansije.BankBillPlacement.incoming_bill → menice.UlaznaMenica | ForeignKey | 0..* : 0..1">
<path fill="none" stroke="#a27631" d="M155.38,-578.33C190.96,-575.31 231.6,-565.52 258.85,-539.39 296.9,-502.91 269.88,-473.95 287.85,-424.39 288.28,-423.22 288.7,-422.04 289.14,-420.87" />
<polygon fill="#a27631" stroke="#a27631" points="291.36,-421.91 291.52,-414.49 286.77,-420.19 291.36,-421.91" />
</a>
</g>
<text xml:space="preserve" text-anchor="middle" x="223.6" y="-577.73" font-family="Segoe UI" font-size="11.00">incoming_bill</text>
<text xml:space="preserve" text-anchor="middle" x="293.22" y="-425.08" font-family="Segoe UI" font-size="11.00">0..1</text>
<text xml:space="preserve" text-anchor="middle" x="168.25" y="-567.68" font-family="Segoe UI" font-size="11.00">0..*</text>
</g>

<g id="node-ugovori.ContractMenicaLink" class="node" data-key="ugovori.ContractMenicaLink" data-route="model/ugovori.ContractMenicaLink">
<title>n3</title>
<g id="a_node-ugovori.ContractMenicaLink"><a xlink:href="../../index.html#model/ugovori.ContractMenicaLink" xlink:title="ugovori.ContractMenicaLink" target="_top">
<path fill="#f3f8fb" stroke="#8a6933" d="M147.35,-503.78C147.35,-503.78 12,-503.78 12,-503.78 6,-503.78 0,-497.78 0,-491.78 0,-491.78 0,-425 0,-425 0,-419 6,-413 12,-413 12,-413 147.35,-413 147.35,-413 153.35,-413 159.35,-419 159.35,-425 159.35,-425 159.35,-491.78 159.35,-491.78 159.35,-497.78 153.35,-503.78 147.35,-503.78" />
<text xml:space="preserve" text-anchor="start" x="14.8" y="-480.69" font-family="Segoe UI" font-size="11.00" fill="#8a6933">ugovori</text>
<text xml:space="preserve" text-anchor="start" x="14.8" y="-455.84" font-family="Segoe UI" font-weight="bold" font-size="14.00">ContractMenicaLink</text>
<text xml:space="preserve" text-anchor="start" x="14.8" y="-430.19" font-family="Segoe UI" font-size="11.00" fill="#5c7282">6 polja · povezani model</text>
</a>
</g>
</g>

<g id="edge-2" class="edge" data-from="ugovori.ContractMenicaLink" data-to="menice.Menica">
<title>n3-&gt;n1</title>
<g id="a_edge-2"><a xlink:title="ugovori.ContractMenicaLink.menica → menice.Menica | ForeignKey | 0..* : 0..1">
<path fill="none" stroke="#a27631" d="M159.47,-472.65C193.45,-482.19 231.56,-497.86 258.85,-523.39 267.13,-531.14 274.93,-539.49 282.27,-548.3" />
<polygon fill="#a27631" stroke="#a27631" points="280.27,-549.73 286.58,-553.63 284.08,-546.65 280.27,-549.73" />
</a>
</g>
<text xml:space="preserve" text-anchor="middle" x="223.6" y="-527.94" font-family="Segoe UI" font-size="11.00">menica</text>
<text xml:space="preserve" text-anchor="middle" x="274.05" y="-545.28" font-family="Segoe UI" font-size="11.00">0..1</text>
<text xml:space="preserve" text-anchor="middle" x="174.3" y="-467.48" font-family="Segoe UI" font-size="11.00">0..*</text>
</g>

<g id="edge-3" class="edge" data-from="ugovori.ContractMenicaLink" data-to="menice.UlaznaMenica">
<title>n3-&gt;n2</title>
<g id="a_edge-3"><a xlink:title="ugovori.ContractMenicaLink.ulazna_menica → menice.UlaznaMenica | ForeignKey | 0..* : 0..1">
<path fill="none" stroke="#a27631" d="M137.19,-412.75C178.38,-379.5 235.45,-333.42 285.21,-293.24" />
<polygon fill="#a27631" stroke="#a27631" points="286.47,-295.38 290.37,-289.07 283.39,-291.56 286.47,-295.38" />
</a>
</g>
<text xml:space="preserve" text-anchor="middle" x="223.6" y="-374.24" font-family="Segoe UI" font-size="11.00">ulazna_menica</text>
<text xml:space="preserve" text-anchor="middle" x="284.96" y="-298.64" font-family="Segoe UI" font-size="11.00">0..1</text>
<text xml:space="preserve" text-anchor="middle" x="143.79" y="-396.33" font-family="Segoe UI" font-size="11.00">0..*</text>
</g>
</g>
</svg>