<svg xmlns="http://www.w3.org/2000/svg" xmlns:xlink="http://www.w3.org/1999/xlink" width="312pt" height="99pt" viewBox="0.00 0.00 312.00 99.00" role="img" aria-label="Tokovi rada · Organizacija">
<style>.node:hover polygon,.node:hover path{stroke-width:2.5}.node a:focus{outline:2px solid #287b75}text{font-family:"Segoe UI",Arial,sans-serif}</style><g id="graph0" class="graph" transform="scale(1 1) rotate(0) translate(21.6 77.88)">
<title>G</title>

<g id="node-organizacija--obuhvat" class="node" data-key="organizacija/obuhvat" data-route="flow/organizacija/obuhvat">
<title>n0</title>
<g id="a_node-organizacija--obuhvat"><a xlink:href="../../index.html#flow/organizacija/obuhvat" xlink:title="Tokovi rada · Organizacija" target="_top">
<path fill="#f3f8fb" stroke="#526687" d="M257.1,-56.28C257.1,-56.28 12,-56.28 12,-56.28 6,-56.28 0,-50.28 0,-44.28 0,-44.28 0,-12 0,-12 0,-6 6,0 12,0 12,0 257.1,0 257.1,0 263.1,0 269.1,-6 269.1,-12 269.1,-12 269.1,-44.28 269.1,-44.28 269.1,-50.28 263.1,-56.28 257.1,-56.28" />
<text xml:space="preserve" text-anchor="middle" x="134.55" y="-34.34" font-family="Segoe UI" font-size="14.00">Od dodele uloge do obuhvata podataka</text>
<text xml:space="preserve" text-anchor="middle" x="134.55" y="-14.84" font-family="Segoe UI" font-size="14.00">Organizacija</text>
</a>
</g>
</g>
</g>
</svg>