<svg xmlns="http://www.w3.org/2000/svg" xmlns:xlink="http://www.w3.org/1999/xlink" width="374pt" height="729pt" viewBox="0.00 0.00 374.00 729.00" role="img" aria-label="Predmet nabavke, stavke i fakture">
<style>.node:hover polygon,.node:hover path{stroke-width:2.5}.node a:focus{outline:2px solid #287b75}text{font-family:"Segoe UI",Arial,sans-serif}</style><g id="graph0" class="graph" transform="scale(1 1) rotate(0) translate(21.6 707.46)">
<title>G</title>

<g id="node-start" class="node" data-key="start">
<title>n0</title>
<ellipse fill="#277b75" stroke="#277b75" cx="165.3" cy="-658.44" rx="7.92" ry="7.92" />
<text xml:space="preserve" text-anchor="middle" x="133.38" y="-672.56" font-family="Segoe UI" font-size="14.00">Početak</text>
</g>

<g id="node-0" class="node" data-key="0" data-route="model/nabavka.ProcurementCase">
<title>n1</title>
<g id="a_node-0"><a xlink:href="../../index.html#model/nabavka.ProcurementCase" xlink:title="nabavka.ProcurementCase" target="_top">
<path fill="#f3f8fb" stroke="#277b75" d="M318.6,-592.52C318.6,-592.52 12,-592.52 12,-592.52 6,-592.52 0,-586.52 0,-580.52 0,-580.52 0,-567.74 0,-567.74 0,-561.74 6,-555.74 12,-555.74 12,-555.74 318.6,-555.74 318.6,-555.74 324.6,-555.74 330.6,-561.74 330.6,-567.74 330.6,-567.74 330.6,-580.52 330.6,-580.52 330.6,-586.52 324.6,-592.52 318.6,-592.52" />
<text xml:space="preserve" text-anchor="middle" x="165.3" y="-570.58" font-family="Segoe UI" font-size="14.00">Unos predmeta, šifre posla i odgovornih podataka</text>
</a>
</g>
</g>

<g id="edge-0" class="edge" data-from="start" data-to="0">
<title>n0-&gt;n1</title>
<path fill="none" stroke="#8b9ead" d="M165.3,-650.14C165.3,-639.28 165.3,-618.34 165.3,-601.34" />
<polygon fill="#8b9ead" stroke="#8b9ead" points="167.75,-601.4 165.3,-594.4 162.85,-601.4 167.75,-601.4" />
</g>

<g id="node-1" class="node" data-key="1" data-route="model/nabavka.ProcurementItem">
<title>n2</title>
<g id="a_node-1"><a xlink:href="../../index.html#model/nabavka.ProcurementItem" xlink:title="nabavka.ProcurementItem" target="_top">
<path fill="#f3f8fb" stroke="#277b75" d="M247.73,-497.74C247.73,-497.74 82.88,-497.74 82.88,-497.74 76.88,-497.74 70.88,-491.74 70.88,-485.74 70.88,-485.74 70.88,-472.96 70.88,-472.96 70.88,-466.96 76.88,-460.96 82.88,-460.96 82.88,-460.96 247.73,-460.96 247.73,-460.96 253.73,-460.96 259.73,-466.96 259.73,-472.96 259.73,-472.96 259.73,-485.74 259.73,-485.74 259.73,-491.74 253.73,-497.74 247.73,-497.74" />
<text xml:space="preserve" text-anchor="middle" x="165.3" y="-475.8" font-family="Segoe UI" font-size="14.00">Dodavanje stavki predmeta</text>
</a>
</g>
</g>

<g id="edge-1" class="edge" data-from="0" data-to="1">
<title>n1-&gt;n2</title>
<path fill="none" stroke="#8b9ead" d="M165.3,-555.24C165.3,-541.38 165.3,-521.97 165.3,-506.39" />
<polygon fill="#8b9ead" stroke="#8b9ead" points="167.75,-506.7 165.3,-499.7 162.85,-506.7 167.75,-506.7" />
</g>

<g id="node-2" class="node" data-key="2" data-route="model/nabavka.PurchaseOrder">
<title>n3</title>
<g id="a_node-2"><a xlink:href="../../index.html#model/nabavka.PurchaseOrder" xlink:title="nabavka.PurchaseOrder" target="_top">
<path fill="#f3f8fb" stroke="#277b75" d="M288.98,-402.96C288.98,-402.96 41.62,-402.96 41.62,-402.96 35.62,-402.96 29.62,-396.96 29.62,-390.96 29.62,-390.96 29.62,-378.18 29.62,-378.18 29.62,-372.18 35.62,-366.18 41.62,-366.18 41.62,-366.18 288.98,-366.18 288.98,-366.18 294.98,-366.18 300.98,-372.18 300.98,-378.18 300.98,-378.18 300.98,-390.96 300.98,-390.96 300.98,-396.96 294.98,-402.96 288.98,-402.96" />
<text xml:space="preserve" text-anchor="middle" x="165.3" y="-381.02" font-family="Segoe UI" font-size="14.00">Priprema narudžbenice prema predmetu</text>
</a>
</g>
</g>

<g id="edge-2" class="edge" data-from="1" data-to="2">
<title>n2-&gt;n3</title>
<path fill="none" stroke="#8b9ead" d="M165.3,-460.46C165.3,-446.6 165.3,-427.19 165.3,-411.61" />
<polygon fill="#8b9ead" stroke="#8b9ead" points="167.75,-411.92 165.3,-404.92 162.85,-411.92 167.75,-411.92" />
</g>

<g id="node-3" class="node" data-key="3" data-route="model/nabavka.ProcurementInvoice">
<title>n4</title>
<g id="a_node-3"><a xlink:href="../../index.html#model/nabavka.ProcurementInvoice" xlink:title="nabavka.ProcurementInvoice" target="_top">
<path fill="#f3f8fb" stroke="#277b75" d="M266.85,-308.18C266.85,-308.18 63.75,-308.18 63.75,-308.18 57.75,-308.18 51.75,-302.18 51.75,-296.18 51.75,-296.18 51.75,-283.4 51.75,-283.4 51.75,-277.4 57.75,-271.4 63.75,-271.4 63.75,-271.4 266.85,-271.4 266.85,-271.4 272.85,-271.4 278.85,-277.4 278.85,-283.4 278.85,-283.4 278.85,-296.18 278.85,-296.18 278.85,-302.18 272.85,-308.18 266.85,-308.18" />
<text xml:space="preserve" text-anchor="middle" x="165.3" y="-286.24" font-family="Segoe UI" font-size="14.00">Uvoz / izbor fakture i povezivanje</text>
</a>
</g>
</g>

<g id="edge-3" class="edge" data-from="2" data-to="3">
<title>n3-&gt;n4</title>
<path fill="none" stroke="#8b9ead" d="M165.3,-365.68C165.3,-351.82 165.3,-332.41 165.3,-316.83" />
<polygon fill="#8b9ead" stroke="#8b9ead" points="167.75,-317.14 165.3,-310.14 162.85,-317.14 167.75,-317.14" />
</g>

<g id="node-4" class="node" data-key="4" data-route="model/nabavka.ProcurementItemInvoiceLink">
<title>n5</title>
<g id="a_node-4"><a xlink:href="../../index.html#model/nabavka.ProcurementItemInvoiceLink" xlink:title="nabavka.ProcurementItemInvoiceLink" target="_top">
<path fill="#f3f8fb" stroke="#277b75" d="M307.35,-213.4C307.35,-213.4 23.25,-213.4 23.25,-213.4 17.25,-213.4 11.25,-207.4 11.25,-201.4 11.25,-201.4 11.25,-188.62 11.25,-188.62 11.25,-182.62 17.25,-176.62 23.25,-176.62 23.25,-176.62 307.35,-176.62 307.35,-176.62 313.35,-176.62 319.35,-182.62 319.35,-188.62 319.35,-188.62 319.35,-201.4 319.35,-201.4 319.35,-207.4 313.35,-213.4 307.35,-213.4" />
<text xml:space="preserve" text-anchor="middle" x="165.3" y="-191.46" font-family="Segoe UI" font-size="14.00">Veze stavki, šifri posla i ugovora prema potrebi</text>
</a>
</g>
</g>

<g id="edge-4" class="edge" data-from="3" data-to="4">
<title>n4-&gt;n5</title>
<path fill="none" stroke="#8b9ead" d="M165.3,-270.9C165.3,-257.04 165.3,-237.63 165.3,-222.05" />
<polygon fill="#8b9ead" stroke="#8b9ead" points="167.75,-222.36 165.3,-215.36 162.85,-222.36 167.75,-222.36" />
</g>

<g id="node-5" class="node" data-key="5" data-route="model/nabavka.ProcurementStatusLog">
<title>n6</title>
<g id="a_node-5"><a xlink:href="../../index.html#model/nabavka.ProcurementStatusLog" xlink:title="nabavka.ProcurementStatusLog" target="_top">
<path fill="#f3f8fb" stroke="#277b75" d="M301.35,-118.62C301.35,-118.62 29.25,-118.62 29.25,-118.62 23.25,-118.62 17.25,-112.62 17.25,-106.62 17.25,-106.62 17.25,-93.84 17.25,-93.84 17.25,-87.84 23.25,-81.84 29.25,-81.84 29.25,-81.84 301.35,-81.84 301.35,-81.84 307.35,-81.84 313.35,-87.84 313.35,-93.84 313.35,-93.84 313.35,-106.62 313.35,-106.62 313.35,-112.62 307.35,-118.62 301.35,-118.62" />
<text xml:space="preserve" text-anchor="middle" x="165.3" y="-96.68" font-family="Segoe UI" font-size="14.00">Praćenje predmeta i istorije promena statusa</text>
</a>
</g>
</g>

<g id="edge-5" class="edge" data-from="4" data-to="5">
<title>n5-&gt;n6</title>
<path fill="none" stroke="#8b9ead" d="M165.3,-176.12C165.3,-162.26 165.3,-142.85 165.3,-127.27" />
<polygon fill="#8b9ead" stroke="#8b9ead" points="167.75,-127.58 165.3,-120.58 162.85,-127.58 167.75,-127.58" />
</g>

<g id="node-end" class="node" data-key="end">
<title>n7</title>
<ellipse fill="#277b75" stroke="#277b75" cx="165.3" cy="-11.92" rx="7.92" ry="7.92" />
<ellipse fill="none" stroke="#277b75" cx="165.3" cy="-11.92" rx="11.92" ry="11.92" />
<text xml:space="preserve" text-anchor="middle" x="141.75" y="-30.04" font-family="Segoe UI" font-size="14.00">Kraj</text>
</g>

<g id="edge-6" class="edge" data-from="5" data-to="end">
<title>n6-&gt;n7</title>
<path fill="none" stroke="#8b9ead" d="M165.3,-81.35C165.3,-67.12 165.3,-47.23 165.3,-32.56" />
<polygon fill="#8b9ead" stroke="#8b9ead" points="167.75,-32.71 165.3,-25.71 162.85,-32.71 167.75,-32.71" />
</g>
</g>
</svg>