<svg xmlns="http://www.w3.org/2000/svg" xmlns:xlink="http://www.w3.org/1999/xlink" width="498pt" height="249pt" viewBox="0.00 0.00 498.00 249.00" role="img" aria-label="TokPostupka · neposredne veze">
<style>.node:hover polygon,.node:hover path{stroke-width:2.5}.node a:focus{outline:2px solid #287b75}text{font-family:"Segoe UI",Arial,sans-serif}</style><g id="graph0" class="graph" transform="scale(1 1) rotate(0) translate(21.6 227.38)">
<title>G</title>

<g id="node-core.CustomUser" class="node" data-key="core.CustomUser" data-route="model/core.CustomUser">
<title>n0</title>
<g id="a_node-core.CustomUser"><a xlink:href="../../index.html#model/core.CustomUser" xlink:title="core.CustomUser" target="_top">
<path fill="#f3f8fb" stroke="#526687" d="M437.45,-205.28C437.45,-205.28 310.35,-205.28 310.35,-205.28 304.35,-205.28 298.35,-199.28 298.35,-193.28 298.35,-193.28 298.35,-126.5 298.35,-126.5 298.35,-120.5 304.35,-114.5 310.35,-114.5 310.35,-114.5 437.45,-114.5 437.45,-114.5 443.45,-114.5 449.45,-120.5 449.45,-126.5 449.45,-126.5 449.45,-193.28 449.45,-193.28 449.45,-199.28 443.45,-205.28 437.45,-205.28" />
<text xml:space="preserve" text-anchor="start" x="313.15" y="-182.19" font-family="Segoe UI" font-size="11.00" fill="#526687">core</text>
<text xml:space="preserve" text-anchor="start" x="313.15" y="-157.34" font-family="Segoe UI" font-weight="bold" font-size="14.00">CustomUser</text>
<text xml:space="preserve" text-anchor="start" x="313.15" y="-131.69" font-family="Segoe UI" font-size="11.00" fill="#5c7282">5 polja · povezani model</text>
</a>
</g>
</g>

<g id="node-pravna.DisciplinskiPostupak" class="node" data-key="pravna.DisciplinskiPostupak" data-route="model/pravna.DisciplinskiPostupak">
<title>n1</title>
<g id="a_node-pravna.DisciplinskiPostupak"><a xlink:href="../../index.html#model/pravna.DisciplinskiPostupak" xlink:title="pravna.DisciplinskiPostupak" target="_top">
<path fill="#f3f8fb" stroke="#8a6933" d="M442.7,-91.28C442.7,-91.28 305.1,-91.28 305.1,-91.28 299.1,-91.28 293.1,-85.28 293.1,-79.28 293.1,-79.28 293.1,-12.5 293.1,-12.5 293.1,-6.5 299.1,-0.5 305.1,-0.5 305.1,-0.5 442.7,-0.5 442.7,-0.5 448.7,-0.5 454.7,-6.5 454.7,-12.5 454.7,-12.5 454.7,-79.28 454.7,-79.28 454.7,-85.28 448.7,-91.28 442.7,-91.28" />
<text xml:space="preserve" text-anchor="start" x="307.9" y="-68.19" font-family="Segoe UI" font-size="11.00" fill="#8a6933">pravna</text>
<text xml:space="preserve" text-anchor="start" x="307.9" y="-43.34" font-family="Segoe UI" font-weight="bold" font-size="14.00">DisciplinskiPostupak</text>
<text xml:space="preserve" text-anchor="start" x="307.9" y="-17.69" font-family="Segoe UI" font-size="11.00" fill="#5c7282">11 polja · povezani model</text>
</a>
</g>
</g>

<g id="node-pravna.TokPostupka" class="node" data-key="pravna.TokPostupka" data-route="model/pravna.TokPostupka">
<title>n2</title>
<g id="a_node-pravna.TokPostupka"><a xlink:href="../../index.html#model/pravna.TokPostupka" xlink:title="pravna.TokPostupka" target="_top">
<path fill="#f3f8fb" stroke="#8a6933" d="M169.85,-205.78C169.85,-205.78 12,-205.78 12,-205.78 6,-205.78 0,-199.78 0,-193.78 0,-193.78 0,-12 0,-12 0,-6 6,0 12,0 12,0 169.85,0 169.85,0 175.85,0 181.85,-6 181.85,-12 181.85,-12 181.85,-193.78 181.85,-193.78 181.85,-199.78 175.85,-205.78 169.85,-205.78" />
<text xml:space="preserve" text-anchor="start" x="14.8" y="-182.69" font-family="Segoe UI" font-size="11.00" fill="#8a6933">pravna</text>
<text xml:space="preserve" text-anchor="start" x="14.8" y="-157.84" font-family="Segoe UI" font-weight="bold" font-size="14.00">TokPostupka</text>
<text xml:space="preserve" text-anchor="start" x="14.8" y="-132.19" font-family="Segoe UI" font-size="11.00">id : PK (Django)</text>
<text xml:space="preserve" text-anchor="start" x="14.8" y="-109.19" font-family="Segoe UI" font-size="11.00">postupak : DisciplinskiPostupak</text>
<text xml:space="preserve" text-anchor="start" x="14.8" y="-86.19" font-family="Segoe UI" font-size="11.00">datum : Date</text>
<text xml:space="preserve" text-anchor="start" x="14.8" y="-63.19" font-family="Segoe UI" font-size="11.00">opis : Text</text>
<text xml:space="preserve" text-anchor="start" x="14.8" y="-40.19" font-family="Segoe UI" font-size="11.00">created_at : DateTime</text>
<text xml:space="preserve" text-anchor="start" x="14.8" y="-17.19" font-family="Segoe UI" font-size="11.00">created_by : CustomUser ?</text>
</a>
</g>
</g>

<g id="edge-1" class="edge" data-from="pravna.TokPostupka" data-to="core.CustomUser">
<title>n2-&gt;n0</title>
<g id="a_edge-1"><a xlink:title="pravna.TokPostupka.created_by → core.CustomUser | ForeignKey | 0..* : 0..1">
<path fill="none" stroke="#a27631" d="M181.99,-121.16C216.61,-128.18 255.95,-136.16 289.88,-143.05" />
<polygon fill="#a27631" stroke="#a27631" points="289.1,-145.39 296.45,-144.38 290.07,-140.59 289.1,-145.39" />
</a>
</g>
<text xml:space="preserve" text-anchor="middle" x="237.48" y="-141.05" font-family="Segoe UI" font-size="11.00">created_by</text>
<text xml:space="preserve" text-anchor="middle" x="283.35" y="-145.24" font-family="Segoe UI" font-size="11.00">0..1</text>
<text xml:space="preserve" text-anchor="middle" x="196.57" y="-114.7" font-family="Segoe UI" font-size="11.00">0..*</text>
</g>

<g id="edge-0" class="edge" data-from="pravna.TokPostupka" data-to="pravna.DisciplinskiPostupak">
<title>n2-&gt;n1</title>
<g id="a_edge-0"><a xlink:title="pravna.TokPostupka.postupak → pravna.DisciplinskiPostupak | ForeignKey | 0..* : 1">
<path fill="none" stroke="#7297ab" d="M181.99,-84.62C214.84,-77.96 251.93,-70.43 284.62,-63.8" />
<polygon fill="#7297ab" stroke="#7297ab" points="284.98,-66.23 291.35,-62.43 284,-61.42 284.98,-66.23" />
</a>
</g>
<text xml:space="preserve" text-anchor="middle" x="237.48" y="-82.35" font-family="Segoe UI" font-size="11.00">postupak</text>
<text xml:space="preserve" text-anchor="middle" x="280.77" y="-68.1" font-family="Segoe UI" font-size="11.00">1</text>
<text xml:space="preserve" text-anchor="middle" x="194.05" y="-72.75" font-family="Segoe UI" font-size="11.00">0..*</text>
</g>
</g>
</svg>