<svg xmlns="http://www.w3.org/2000/svg" xmlns:xlink="http://www.w3.org/1999/xlink" width="241pt" height="180pt" viewBox="0.00 0.00 241.00 180.00" role="img" aria-label="BrojacZahteva · neposredne veze">
<style>.node:hover polygon,.node:hover path{stroke-width:2.5}.node a:focus{outline:2px solid #287b75}text{font-family:"Segoe UI",Arial,sans-serif}</style><g id="graph0" class="graph" transform="scale(1 1) rotate(0) translate(21.6 158.38)">
<title>G</title>

<g id="node-hr.BrojacZahteva" class="node" data-key="hr.BrojacZahteva" data-route="model/hr.BrojacZahteva">
<title>n0</title>
<g id="a_node-hr.BrojacZahteva"><a xlink:href="../../index.html#model/hr.BrojacZahteva" xlink:title="hr.BrojacZahteva" target="_top">
<path fill="#f3f8fb" stroke="#3778a3" d="M185.6,-136.78C185.6,-136.78 12,-136.78 12,-136.78 6,-136.78 0,-130.78 0,-124.78 0,-124.78 0,-12 0,-12 0,-6 6,0 12,0 12,0 185.6,0 185.6,0 191.6,0 197.6,-6 197.6,-12 197.6,-12 197.6,-124.78 197.6,-124.78 197.6,-130.78 191.6,-136.78 185.6,-136.78" />
<text xml:space="preserve" text-anchor="start" x="14.8" y="-113.69" font-family="Segoe UI" font-size="11.00" fill="#3778a3">hr</text>
<text xml:space="preserve" text-anchor="start" x="14.8" y="-88.84" font-family="Segoe UI" font-weight="bold" font-size="14.00">BrojacZahteva</text>
<text xml:space="preserve" text-anchor="start" x="14.8" y="-63.19" font-family="Segoe UI" font-size="11.00">id : PK (Django)</text>
<text xml:space="preserve" text-anchor="start" x="14.8" y="-40.19" font-family="Segoe UI" font-size="11.00">godina : PositiveSmallInteger [UQ]</text>
<text xml:space="preserve" text-anchor="start" x="14.8" y="-17.19" font-family="Segoe UI" font-size="11.00">poslednji_broj : PositiveInteger</text>
</a>
</g>
</g>
</g>
</svg>