<svg xmlns="http://www.w3.org/2000/svg" xmlns:xlink="http://www.w3.org/1999/xlink" width="470pt" height="410pt" viewBox="0.00 0.00 470.00 410.00" role="img" aria-label="ContractGuarantee · neposredne veze">
<style>.node:hover polygon,.node:hover path{stroke-width:2.5}.node a:focus{outline:2px solid #287b75}text{font-family:"Segoe UI",Arial,sans-serif}</style><g id="graph0" class="graph" transform="scale(1 1) rotate(0) translate(21.6 388.38)">
<title>G</title>

<g id="node-core.CustomUser" class="node" data-key="core.CustomUser" data-route="model/core.CustomUser">
<title>n0</title>
<g id="a_node-core.CustomUser"><a xlink:href="../../index.html#model/core.CustomUser" xlink:title="core.CustomUser" target="_top">
<path fill="#f3f8fb" stroke="#526687" d="M411.95,-285.78C411.95,-285.78 284.85,-285.78 284.85,-285.78 278.85,-285.78 272.85,-279.78 272.85,-273.78 272.85,-273.78 272.85,-207 272.85,-207 272.85,-201 278.85,-195 284.85,-195 284.85,-195 411.95,-195 411.95,-195 417.95,-195 423.95,-201 423.95,-207 423.95,-207 423.95,-273.78 423.95,-273.78 423.95,-279.78 417.95,-285.78 411.95,-285.78" />
<text xml:space="preserve" text-anchor="start" x="287.65" y="-262.69" font-family="Segoe UI" font-size="11.00" fill="#526687">core</text>
<text xml:space="preserve" text-anchor="start" x="287.65" y="-237.84" font-family="Segoe UI" font-weight="bold" font-size="14.00">CustomUser</text>
<text xml:space="preserve" text-anchor="start" x="287.65" y="-212.19" font-family="Segoe UI" font-size="11.00" fill="#5c7282">5 polja · povezani model</text>
</a>
</g>
</g>

<g id="node-ugovori.Contract" class="node" data-key="ugovori.Contract" data-route="model/ugovori.Contract">
<title>n1</title>
<g id="a_node-ugovori.Contract"><a xlink:href="../../index.html#model/ugovori.Contract" xlink:title="ugovori.Contract" target="_top">
<path fill="#f3f8fb" stroke="#8a6933" d="M414.95,-171.78C414.95,-171.78 281.85,-171.78 281.85,-171.78 275.85,-171.78 269.85,-165.78 269.85,-159.78 269.85,-159.78 269.85,-93 269.85,-93 269.85,-87 275.85,-81 281.85,-81 281.85,-81 414.95,-81 414.95,-81 420.95,-81 426.95,-87 426.95,-93 426.95,-93 426.95,-159.78 426.95,-159.78 426.95,-165.78 420.95,-171.78 414.95,-171.78" />
<text xml:space="preserve" text-anchor="start" x="284.65" y="-148.69" font-family="Segoe UI" font-size="11.00" fill="#8a6933">ugovori</text>
<text xml:space="preserve" text-anchor="start" x="284.65" y="-123.84" font-family="Segoe UI" font-weight="bold" font-size="14.00">Contract</text>
<text xml:space="preserve" text-anchor="start" x="284.65" y="-98.19" font-family="Segoe UI" font-size="11.00" fill="#5c7282">23 polja · povezani model</text>
</a>
</g>
</g>

<g id="node-ugovori.ContractGuarantee" class="node" data-key="ugovori.ContractGuarantee" data-route="model/ugovori.ContractGuarantee">
<title>n2</title>
<g id="a_node-ugovori.ContractGuarantee"><a xlink:href="../../index.html#model/ugovori.ContractGuarantee" xlink:title="ugovori.ContractGuarantee" target="_top">
<path fill="#f3f8fb" stroke="#8a6933" d="M146.6,-366.78C146.6,-366.78 12,-366.78 12,-366.78 6,-366.78 0,-360.78 0,-354.78 0,-354.78 0,-12 0,-12 0,-6 6,0 12,0 12,0 146.6,0 146.6,0 152.6,0 158.6,-6 158.6,-12 158.6,-12 158.6,-354.78 158.6,-354.78 158.6,-360.78 152.6,-366.78 146.6,-366.78" />
<text xml:space="preserve" text-anchor="start" x="14.8" y="-343.69" font-family="Segoe UI" font-size="11.00" fill="#8a6933">ugovori</text>
<text xml:space="preserve" text-anchor="start" x="14.8" y="-318.84" font-family="Segoe UI" font-weight="bold" font-size="14.00">ContractGuarantee</text>
<text xml:space="preserve" text-anchor="start" x="14.8" y="-293.19" font-family="Segoe UI" font-size="11.00">id : PK (Django)</text>
<text xml:space="preserve" text-anchor="start" x="14.8" y="-270.19" font-family="Segoe UI" font-size="11.00">contract : Contract</text>
<text xml:space="preserve" text-anchor="start" x="14.8" y="-247.19" font-family="Segoe UI" font-size="11.00">guarantee_number : Char</text>
<text xml:space="preserve" text-anchor="start" x="14.8" y="-224.19" font-family="Segoe UI" font-size="11.00">issuer : Char ?</text>
<text xml:space="preserve" text-anchor="start" x="14.8" y="-201.19" font-family="Segoe UI" font-size="11.00">beneficiary : Char ?</text>
<text xml:space="preserve" text-anchor="start" x="14.8" y="-178.19" font-family="Segoe UI" font-size="11.00">amount : Decimal ?</text>
<text xml:space="preserve" text-anchor="start" x="14.8" y="-155.19" font-family="Segoe UI" font-size="11.00">currency : Char</text>
<text xml:space="preserve" text-anchor="start" x="14.8" y="-132.19" font-family="Segoe UI" font-size="11.00">valid_from : Date ?</text>
<text xml:space="preserve" text-anchor="start" x="14.8" y="-109.19" font-family="Segoe UI" font-size="11.00">valid_to : Date ?</text>
<text xml:space="preserve" text-anchor="start" x="14.8" y="-86.19" font-family="Segoe UI" font-size="11.00">status : Char</text>
<text xml:space="preserve" text-anchor="start" x="14.8" y="-63.19" font-family="Segoe UI" font-size="11.00">note : Text ?</text>
<text xml:space="preserve" text-anchor="start" x="14.8" y="-40.19" font-family="Segoe UI" font-size="11.00">created_at : DateTime</text>
<text xml:space="preserve" text-anchor="start" x="14.8" y="-17.19" font-family="Segoe UI" font-size="11.00">created_by : CustomUser ?</text>
</a>
</g>
</g>

<g id="edge-1" class="edge" data-from="ugovori.ContractGuarantee" data-to="core.CustomUser">
<title>n2-&gt;n0</title>
<g id="a_edge-1"><a xlink:title="ugovori.ContractGuarantee.created_by → core.CustomUser | ForeignKey | 0..* : 0..1">
<path fill="none" stroke="#a27631" d="M158.99,-200.18C192.19,-207.27 230.85,-215.52 264.49,-222.7" />
<polygon fill="#a27631" stroke="#a27631" points="263.64,-225.02 271,-224.09 264.66,-220.23 263.64,-225.02" />
</a>
</g>
<text xml:space="preserve" text-anchor="middle" x="214.22" y="-221.55" font-family="Segoe UI" font-size="11.00">created_by</text>
<text xml:space="preserve" text-anchor="middle" x="257.86" y="-224.81" font-family="Segoe UI" font-size="11.00">0..1</text>
<text xml:space="preserve" text-anchor="middle" x="173.61" y="-193.87" font-family="Segoe UI" font-size="11.00">0..*</text>
</g>

<g id="edge-0" class="edge" data-from="ugovori.ContractGuarantee" data-to="ugovori.Contract">
<title>n2-&gt;n1</title>
<g id="a_edge-0"><a xlink:title="ugovori.ContractGuarantee.contract → ugovori.Contract | ForeignKey | 0..* : 1">
<path fill="none" stroke="#7297ab" d="M158.99,-166.6C191.2,-159.72 228.55,-151.75 261.46,-144.73" />
<polygon fill="#7297ab" stroke="#7297ab" points="261.91,-147.14 268.25,-143.28 260.89,-142.35 261.91,-147.14" />
</a>
</g>
<text xml:space="preserve" text-anchor="middle" x="214.22" y="-164.55" font-family="Segoe UI" font-size="11.00">contract</text>
<text xml:space="preserve" text-anchor="middle" x="257.76" y="-149.05" font-family="Segoe UI" font-size="11.00">1</text>
<text xml:space="preserve" text-anchor="middle" x="170.97" y="-154.61" font-family="Segoe UI" font-size="11.00">0..*</text>
</g>
</g>
</svg>